<mxfile host="app.diagrams.net" modified="2024-03-28T13:20:37.630Z" agent="Mozilla/5.0 (Windows NT 10.0; Win64; x64) AppleWebKit/537.36 (KHTML, like Gecko) Chrome/123.0.0.0 Safari/537.36" etag="gljWx1ayVpYrRb-7NB8l" version="24.2.0" type="device">
  <diagram name="PÃ¡gina-1" id="awKEsNvg9D3PnNE6RIj0">
    <mxGraphModel dx="1728" dy="915" grid="1" gridSize="10" guides="1" tooltips="1" connect="1" arrows="1" fold="1" page="1" pageScale="1" pageWidth="827" pageHeight="1169" math="0" shadow="0">
      <root>
        <mxCell id="0" />
        <mxCell id="1" parent="0" />
        <mxCell id="o2FrdHdaMIjOqm_I1F31-4" style="edgeStyle=orthogonalEdgeStyle;rounded=0;orthogonalLoop=1;jettySize=auto;html=1;" edge="1" parent="1" source="o2FrdHdaMIjOqm_I1F31-1">
          <mxGeometry relative="1" as="geometry">
            <mxPoint x="430" y="385" as="targetPoint" />
          </mxGeometry>
        </mxCell>
        <mxCell id="o2FrdHdaMIjOqm_I1F31-1" value="" style="shape=image;html=1;verticalAlign=top;verticalLabelPosition=bottom;labelBackgroundColor=#ffffff;imageAspect=0;aspect=fixed;image=https://cdn0.iconfinder.com/data/icons/long-shadow-web-icons/512/python-128.png" vertex="1" parent="1">
          <mxGeometry x="240" y="330" width="110" height="110" as="geometry" />
        </mxCell>
        <mxCell id="o2FrdHdaMIjOqm_I1F31-3" style="edgeStyle=orthogonalEdgeStyle;rounded=0;orthogonalLoop=1;jettySize=auto;html=1;" edge="1" parent="1" source="o2FrdHdaMIjOqm_I1F31-2" target="o2FrdHdaMIjOqm_I1F31-1">
          <mxGeometry relative="1" as="geometry" />
        </mxCell>
        <mxCell id="o2FrdHdaMIjOqm_I1F31-2" value="" style="aspect=fixed;sketch=0;html=1;dashed=0;whitespace=wrap;fillColor=#2875E2;strokeColor=#ffffff;points=[[0.005,0.63,0],[0.1,0.2,0],[0.9,0.2,0],[0.5,0,0],[0.995,0.63,0],[0.72,0.99,0],[0.5,1,0],[0.28,0.99,0]];shape=mxgraph.kubernetes.icon2;kubernetesLabel=1;prIcon=api" vertex="1" parent="1">
          <mxGeometry x="10" y="316.5" width="142.71" height="137" as="geometry" />
        </mxCell>
        <mxCell id="o2FrdHdaMIjOqm_I1F31-11" style="edgeStyle=orthogonalEdgeStyle;rounded=0;orthogonalLoop=1;jettySize=auto;html=1;" edge="1" parent="1" source="o2FrdHdaMIjOqm_I1F31-7" target="o2FrdHdaMIjOqm_I1F31-10">
          <mxGeometry relative="1" as="geometry" />
        </mxCell>
        <mxCell id="o2FrdHdaMIjOqm_I1F31-7" value="BRONZE" style="sketch=0;outlineConnect=0;fontColor=#232F3E;gradientColor=none;strokeColor=#ffffff;fillColor=#232F3E;dashed=0;verticalLabelPosition=middle;verticalAlign=bottom;align=center;html=1;whiteSpace=wrap;fontSize=10;fontStyle=1;spacing=3;shape=mxgraph.aws4.productIcon;prIcon=mxgraph.aws4.s3;" vertex="1" parent="1">
          <mxGeometry x="430" y="310" width="100" height="140" as="geometry" />
        </mxCell>
        <mxCell id="o2FrdHdaMIjOqm_I1F31-14" style="edgeStyle=orthogonalEdgeStyle;rounded=0;orthogonalLoop=1;jettySize=auto;html=1;" edge="1" parent="1" source="o2FrdHdaMIjOqm_I1F31-8" target="o2FrdHdaMIjOqm_I1F31-13">
          <mxGeometry relative="1" as="geometry" />
        </mxCell>
        <mxCell id="o2FrdHdaMIjOqm_I1F31-8" value="SILVER" style="sketch=0;outlineConnect=0;fontColor=#232F3E;gradientColor=none;strokeColor=#ffffff;fillColor=#232F3E;dashed=0;verticalLabelPosition=middle;verticalAlign=bottom;align=center;html=1;whiteSpace=wrap;fontSize=10;fontStyle=1;spacing=3;shape=mxgraph.aws4.productIcon;prIcon=mxgraph.aws4.s3;" vertex="1" parent="1">
          <mxGeometry x="430" y="690" width="100" height="140" as="geometry" />
        </mxCell>
        <mxCell id="o2FrdHdaMIjOqm_I1F31-9" value="GOLD" style="sketch=0;outlineConnect=0;fontColor=#232F3E;gradientColor=none;strokeColor=#ffffff;fillColor=#232F3E;dashed=0;verticalLabelPosition=middle;verticalAlign=bottom;align=center;html=1;whiteSpace=wrap;fontSize=10;fontStyle=1;spacing=3;shape=mxgraph.aws4.productIcon;prIcon=mxgraph.aws4.s3;" vertex="1" parent="1">
          <mxGeometry x="430" y="1070" width="100" height="140" as="geometry" />
        </mxCell>
        <mxCell id="o2FrdHdaMIjOqm_I1F31-12" style="edgeStyle=orthogonalEdgeStyle;rounded=0;orthogonalLoop=1;jettySize=auto;html=1;" edge="1" parent="1" source="o2FrdHdaMIjOqm_I1F31-10" target="o2FrdHdaMIjOqm_I1F31-8">
          <mxGeometry relative="1" as="geometry" />
        </mxCell>
        <mxCell id="o2FrdHdaMIjOqm_I1F31-10" value="" style="shape=image;html=1;verticalAlign=top;verticalLabelPosition=bottom;labelBackgroundColor=#ffffff;imageAspect=0;aspect=fixed;image=https://cdn0.iconfinder.com/data/icons/long-shadow-web-icons/512/python-128.png" vertex="1" parent="1">
          <mxGeometry x="425" y="520" width="110" height="110" as="geometry" />
        </mxCell>
        <mxCell id="o2FrdHdaMIjOqm_I1F31-15" style="edgeStyle=orthogonalEdgeStyle;rounded=0;orthogonalLoop=1;jettySize=auto;html=1;" edge="1" parent="1" source="o2FrdHdaMIjOqm_I1F31-13" target="o2FrdHdaMIjOqm_I1F31-9">
          <mxGeometry relative="1" as="geometry" />
        </mxCell>
        <mxCell id="o2FrdHdaMIjOqm_I1F31-13" value="" style="shape=image;html=1;verticalAlign=top;verticalLabelPosition=bottom;labelBackgroundColor=#ffffff;imageAspect=0;aspect=fixed;image=https://cdn0.iconfinder.com/data/icons/long-shadow-web-icons/512/python-128.png" vertex="1" parent="1">
          <mxGeometry x="425" y="890" width="110" height="110" as="geometry" />
        </mxCell>
        <mxCell id="o2FrdHdaMIjOqm_I1F31-17" value="" style="shape=image;verticalLabelPosition=bottom;labelBackgroundColor=default;verticalAlign=top;aspect=fixed;imageAspect=0;image=https://miro.medium.com/v2/resize:fit:500/1*GQnwZB95_StaHm_dCE6Bow.png;" vertex="1" parent="1">
          <mxGeometry x="330" y="80" width="140.63" height="90" as="geometry" />
        </mxCell>
        <mxCell id="o2FrdHdaMIjOqm_I1F31-19" value="" style="rounded=0;whiteSpace=wrap;html=1;fillColor=none;" vertex="1" parent="1">
          <mxGeometry x="10" y="180" width="730" height="1100" as="geometry" />
        </mxCell>
        <mxCell id="o2FrdHdaMIjOqm_I1F31-20" value="" style="image;sketch=0;aspect=fixed;html=1;points=[];align=center;fontSize=12;image=img/lib/mscae/Docker.svg;" vertex="1" parent="1">
          <mxGeometry x="690" y="30" width="123.17" height="101" as="geometry" />
        </mxCell>
        <mxCell id="o2FrdHdaMIjOqm_I1F31-21" value="" style="shape=flexArrow;endArrow=classic;html=1;rounded=0;" edge="1" parent="1">
          <mxGeometry width="50" height="50" relative="1" as="geometry">
            <mxPoint x="490" y="140" as="sourcePoint" />
            <mxPoint x="680" y="70" as="targetPoint" />
          </mxGeometry>
        </mxCell>
      </root>
    </mxGraphModel>
  </diagram>
</mxfile>
